<svg width="67" height="27" viewBox="0 0 67 27" fill="none" xmlns="http://www.w3.org/2000/svg">
<g id="Group 1948754498">
<rect id="Rectangle 142" width="67" height="27" rx="13.5" transform="matrix(-1 0 0 1 67 0)" fill="#008AE0"/>
<path id="Arrow 12" d="M44 15C44.5523 15 45 14.5523 45 14C45 13.4477 44.5523 13 44 13V15ZM21.2929 13.2929C20.9024 13.6834 20.9024 14.3166 21.2929 14.7071L27.6569 21.0711C28.0474 21.4616 28.6805 21.4616 29.0711 21.0711C29.4616 20.6805 29.4616 20.0474 29.0711 19.6569L23.4142 14L29.0711 8.34315C29.4616 7.95262 29.4616 7.31946 29.0711 6.92893C28.6805 6.53841 28.0474 6.53841 27.6569 6.92893L21.2929 13.2929ZM44 13L22 13V15L44 15V13Z" fill="white"/>
</g>
</svg>
