<svg width="67" height="27" viewBox="0 0 67 27" fill="none" xmlns="http://www.w3.org/2000/svg">
<g id="Group 1948754497">
<rect id="Rectangle 142" width="67" height="27" rx="13.5" fill="#008AE0"/>
<path id="Arrow 12" d="M22 13C21.4477 13 21 13.4477 21 14C21 14.5523 21.4477 15 22 15L22 13ZM44.7071 14.7071C45.0976 14.3166 45.0976 13.6834 44.7071 13.2929L38.3431 6.92893C37.9526 6.53841 37.3195 6.53841 36.9289 6.92893C36.5384 7.31946 36.5384 7.95262 36.9289 8.34315L42.5858 14L36.9289 19.6569C36.5384 20.0474 36.5384 20.6805 36.9289 21.0711C37.3195 21.4616 37.9526 21.4616 38.3431 21.0711L44.7071 14.7071ZM22 15L44 15L44 13L22 13L22 15Z" fill="white"/>
</g>
</svg>
